<svg xmlns="http://www.w3.org/2000/svg" width="374" height="42" viewBox="0 0 374 42">
  <g fill="none" fill-rule="evenodd">
    <path fill="#000" fill-rule="nonzero" d="M146.12,16.454 C145.79,13.474 144.134,12.114 140.786,12.114 C137.932,12.114 136.158,13.43 136.158,15.534 C136.158,17.29 137.27,18.342 139.544,18.778 L144.504,19.698 C149.796,20.658 152.65,23.638 152.65,28.202 C152.65,33.942 148.264,37.622 141.32,37.622 C133.964,37.622 129.75,33.852 129.626,27.232 L135.496,27.232 C135.868,31.046 137.642,32.672 141.57,32.672 C144.59,32.672 146.738,31.002 146.738,28.682 C146.738,26.842 145.578,25.702 143.346,25.262 L138.846,24.388 C133.096,23.248 130.446,20.614 130.446,15.928 C130.446,10.582 134.5,7.164 141.114,7.164 C147.604,7.164 151.614,10.624 151.774,16.452 L146.12,16.452 L146.12,16.454 Z M169.188,7.78 C175.218,7.78 178.648,10.5 178.648,15.228 C178.648,17.816 177.494,19.742 174.808,21.234 C178.236,22.59 179.688,24.874 179.688,28.642 C179.688,33.768 175.88,37.012 169.848,37.012 L156.868,37.012 L156.868,7.78 L169.188,7.78 Z M168.356,19.48 C171.292,19.48 172.99,18.254 172.99,16.192 C172.99,13.828 171.456,12.728 168.274,12.728 L162.654,12.728 L162.654,19.48 L168.354,19.48 L168.356,19.48 Z M168.604,32.06 C172.036,32.06 173.732,30.786 173.732,28.16 C173.732,25.4 172.076,24.166 168.316,24.166 L162.656,24.166 L162.656,32.06 L168.604,32.06 Z M196.388,7.78 C202.418,7.78 205.848,10.5 205.848,15.228 C205.848,17.816 204.694,19.742 202.008,21.234 C205.436,22.59 206.888,24.874 206.888,28.642 C206.888,33.768 203.082,37.012 197.048,37.012 L183.94,37.012 L183.94,7.78 L196.388,7.78 Z M195.556,19.48 C198.492,19.48 200.188,18.254 200.188,16.192 C200.188,13.828 198.656,12.728 195.474,12.728 L189.734,12.728 L189.734,19.48 L195.554,19.48 L195.556,19.48 Z M195.804,32.06 C199.234,32.06 200.932,30.786 200.932,28.16 C200.932,25.4 199.276,24.166 195.512,24.166 L189.732,24.166 L189.732,32.06 L195.804,32.06 Z M241.92,26.71 C241.51,33.416 236.91,37.622 230.008,37.622 C222.28,37.622 217.188,31.622 217.188,22.462 C217.188,13.342 222.408,7.168 230.128,7.168 C236.748,7.168 241.182,11.068 241.672,17.248 L235.966,17.248 C235.306,13.918 233.376,12.294 230.172,12.294 C225.818,12.294 222.982,16.234 222.982,22.418 C222.982,28.512 225.778,32.544 230.05,32.544 C233.584,32.544 235.55,30.704 236.174,26.714 L241.922,26.714 L241.92,26.71 Z M251.7,13.036 L251.7,19.916 L263.86,19.916 L263.86,25.004 L251.7,25.004 L251.7,37.01 L245.944,37.01 L245.944,7.78 L265.05,7.78 L265.05,13.036 L251.698,13.036 L251.7,13.036 Z M275.78,13.036 L275.78,19.916 L288.096,19.916 L288.096,25.004 L275.78,25.004 L275.78,37.01 L270.026,37.01 L270.026,7.78 L289.296,7.78 L289.296,13.036 L275.78,13.036 Z M308.828,13.036 L308.828,19.916 L321.268,19.916 L321.268,25.004 L308.828,25.004 L308.828,37.01 L303.032,37.01 L303.032,7.78 L322.466,7.78 L322.466,13.036 L308.826,13.036 L308.828,13.036 Z M333.414,13.036 L333.414,19.916 L345.774,19.916 L345.774,25.004 L333.414,25.004 L333.414,37.01 L327.61,37.01 L327.61,7.78 L346.97,7.78 L346.97,13.036 L333.414,13.036 Z M366.874,16.456 C366.542,13.472 364.888,12.116 361.522,12.116 C358.67,12.116 356.888,13.43 356.888,15.536 C356.888,17.29 358.008,18.342 360.284,18.776 L365.264,19.696 C370.572,20.66 373.428,23.642 373.428,28.204 C373.428,33.944 369.028,37.624 362.064,37.624 C354.684,37.624 350.464,33.854 350.34,27.234 L356.22,27.234 C356.59,31.048 358.38,32.674 362.314,32.674 C365.346,32.674 367.5,31.004 367.5,28.684 C367.5,26.844 366.34,25.704 364.104,25.264 L359.584,24.39 C353.818,23.25 351.168,20.616 351.168,15.93 C351.168,10.584 355.224,7.166 361.858,7.166 C368.368,7.166 372.394,10.626 372.558,16.454 L366.878,16.454 L366.874,16.456 Z"/>
    <polygon fill="#EB0000" points="0 0 118.466 0 118.466 41.206 0 41.206"/>
    <polyline fill="#FFF" points="70.372 34.04 77.872 34.04 67.778 23.714 80.308 23.714 80.308 34.04 86.228 34.04 86.228 23.714 98.762 23.714 88.662 34.04 96.166 34.04 109.02 20.624 96.168 7.164 88.664 7.164 98.764 17.534 86.232 17.534 86.232 7.166 80.312 7.166 80.312 17.534 67.778 17.534 77.872 7.166 70.372 7.166 57.512 20.626 70.372 34.04"/>
  </g>
</svg>
